<?xml version="1.0" encoding="iso-8859-1"?>
<!-- Generator: Adobe Illustrator 17.1.0, SVG Export Plug-In . SVG Version: 6.00 Build 0)  -->
<!DOCTYPE svg PUBLIC "-//W3C//DTD SVG 1.1//EN" "http://www.w3.org/Graphics/SVG/1.1/DTD/svg11.dtd">
<svg version="1.1" id="Capa_1" xmlns="http://www.w3.org/2000/svg" xmlns:xlink="http://www.w3.org/1999/xlink" x="0px" y="0px"
	 viewBox="0 0 221.023 221.023" style="enable-background:new 0 0 221.023 221.023;" xml:space="preserve">
<path d="M191.692,60.571h-16.95H75.444c-4.142,0-7.5,3.358-7.5,7.5v20.068l-26.94-24.284c2.287-5.944,2.612-12.58,0.703-18.91
	c-0.761-2.526-2.793-4.466-5.352-5.109c-2.56-0.645-5.267,0.105-7.132,1.97L2.197,68.831c-1.866,1.865-2.614,4.574-1.97,7.132
	c0.643,2.558,2.583,4.591,5.109,5.352c2.736,0.825,5.577,1.243,8.441,1.243c0,0,0,0,0,0c3.345,0,6.603-0.563,9.669-1.637
	l44.497,59.39v24.531c0,9.138,7.434,16.572,16.572,16.572h81.155c9.138,0,16.571-7.434,16.571-16.572v-16.6l26.49-18.906
	c7.696-5.494,12.291-14.419,12.291-23.874V89.902C221.023,73.728,207.864,60.571,191.692,60.571z M206.023,105.463
	c0,4.62-2.245,8.98-6.005,11.665l-17.776,12.687V75.571h9.45c7.902,0,14.331,6.429,14.331,14.331V105.463z"/>
<g>
</g>
<g>
</g>
<g>
</g>
<g>
</g>
<g>
</g>
<g>
</g>
<g>
</g>
<g>
</g>
<g>
</g>
<g>
</g>
<g>
</g>
<g>
</g>
<g>
</g>
<g>
</g>
<g>
</g>
</svg>
